<?xml version="1.0" standalone="no"?>
<!DOCTYPE svg PUBLIC "-//W3C//DTD SVG 20010904//EN"
 "http://www.w3.org/TR/2001/REC-SVG-20010904/DTD/svg10.dtd">
<svg version="1.0" xmlns="http://www.w3.org/2000/svg"
 width="453.000000pt" height="479.000000pt" viewBox="0 0 453.000000 479.000000"
 preserveAspectRatio="xMidYMid meet">

<g transform="translate(0.000000,479.000000) scale(0.100000,-0.100000)"
fill="#ffffff" stroke="none">
<path d="M0 2395 l0 -2395 2265 0 2265 0 0 2395 0 2395 -2265 0 -2265 0 0
-2395z m2543 1646 c311 -66 573 -207 793 -426 125 -124 188 -206 267 -344 407
-716 189 -1628 -498 -2087 -182 -121 -377 -201 -590 -240 -151 -29 -452 -26
-595 5 -428 92 -779 332 -1015 694 -332 511 -332 1194 1 1704 251 387 631 633
1091 708 129 21 417 14 546 -14z"/>
<path d="M2785 3539 c159 -166 259 -360 311 -599 29 -133 25 -365 -9 -491 -97
-367 -390 -624 -766 -669 -239 -29 -466 45 -627 205 -134 134 -198 287 -198
475 1 119 26 209 84 300 68 105 197 195 320 221 84 18 205 8 272 -23 187 -86
302 -325 241 -503 -24 -72 -119 -166 -198 -195 -164 -60 -350 22 -415 184
l-21 51 5 -59 c15 -180 182 -331 379 -343 271 -17 524 185 583 467 23 108 14
233 -24 344 -40 115 -83 186 -167 271 -201 206 -513 274 -817 179 -552 -172
-804 -800 -544 -1350 206 -434 651 -684 1128 -634 216 23 377 77 538 181 262
170 442 440 495 747 20 111 19 304 -1 423 -63 379 -302 726 -604 879 l-45 23
80 -84z"/>
</g>
</svg>
